<svg width="16" height="16" viewBox="0 0 16 16" fill="none" xmlns="http://www.w3.org/2000/svg">
<path d="M8.14772 15.2273C12.3025 15.2273 15.6619 11.8679 15.6477 7.72729C15.6335 3.58667 12.3025 0.227295 8.14772 0.227295C4.0213 0.227295 0.661924 3.58667 0.647719 7.72729C0.633515 11.8679 4.0213 15.2273 8.14772 15.2273ZM8.14772 13.5796C4.91619 13.5796 2.28124 10.9446 2.29545 7.7344C2.30965 4.50286 4.93039 1.87502 8.14772 1.87502C11.3793 1.87502 13.9858 4.48866 14 7.7344C14.0142 10.9588 11.3935 13.5796 8.14772 13.5796ZM3.99999 7.72729C3.99999 10.0568 5.8892 11.946 8.21874 11.946C10.2358 11.946 11.7841 10.5256 12.054 8.63639H10.3352C10.1364 9.6094 9.31249 10.2983 8.21874 10.2983C6.79829 10.2983 5.64772 9.14775 5.64772 7.72729C5.64772 6.30684 6.79829 5.15627 8.21874 5.15627C9.31249 5.15627 10.2855 5.84519 10.4773 6.8182H12.196C11.9261 4.929 10.2358 3.50854 8.21874 3.50854C5.8892 3.50854 3.99999 5.39775 3.99999 7.72729Z" fill="black"/>
</svg>
