<?xml version="1.0" standalone="no"?>
<!DOCTYPE svg PUBLIC "-//W3C//DTD SVG 20010904//EN"
 "http://www.w3.org/TR/2001/REC-SVG-20010904/DTD/svg10.dtd">
<svg version="1.0" xmlns="http://www.w3.org/2000/svg"
 width="245.000000pt" height="206.000000pt" viewBox="0 0 245.000000 206.000000"
 preserveAspectRatio="xMidYMid meet">

<g transform="translate(0.000000,206.000000) scale(0.100000,-0.100000)"
fill="#000000" stroke="none">
<path d="M1295 2039 c-148 -19 -314 -81 -442 -166 -90 -59 -219 -188 -280
-281 -90 -135 -131 -248 -169 -468 -5 -26 -93 -54 -175 -55 -30 0 -72 -3 -94
-7 l-40 -7 51 -22 c28 -12 70 -25 94 -29 l42 -7 -90 -46 c-81 -43 -188 -118
-180 -127 2 -2 28 3 58 11 69 18 200 38 207 31 3 -2 -18 -17 -47 -31 -29 -14
-50 -29 -47 -31 3 -3 29 2 58 10 63 19 149 21 170 4 8 -7 25 -47 38 -88 112
-362 430 -640 804 -700 122 -20 332 -8 442 24 231 69 422 205 558 398 22 32
47 58 54 58 24 0 102 80 114 117 7 22 9 58 5 97 -11 93 -10 104 3 201 30 218
-35 476 -169 676 -56 82 -187 213 -269 269 -137 92 -299 150 -471 170 -97 11
-127 11 -225 -1z m365 -55 c466 -115 790 -574 740 -1048 -5 -48 -12 -91 -15
-94 -16 -17 -21 23 -12 103 42 376 -175 765 -528 942 -317 160 -720 122 -1006
-95 -178 -136 -311 -345 -356 -560 -18 -85 -43 -129 -43 -76 0 17 9 65 19 107
137 535 667 853 1201 721z m-248 -61 c10 -9 18 -22 18 -30 0 -15 -26 -18 -35
-3 -7 12 -25 13 -25 2 0 -4 10 -12 22 -17 30 -14 42 -37 34 -68 -11 -44 -78
-48 -91 -6 -9 28 2 36 27 20 13 -8 24 -9 30 -3 6 6 -4 17 -26 30 -26 15 -36
28 -36 46 0 42 49 59 82 29z m142 -9 c9 -8 16 -22 16 -30 0 -20 -27 -18 -39 3
-5 10 -13 15 -17 11 -4 -4 7 -21 25 -37 36 -33 37 -38 15 -69 -17 -24 -62 -30
-82 -10 -19 19 -15 48 8 48 12 0 20 -7 20 -16 0 -9 5 -14 12 -12 22 8 19 24
-7 38 -30 16 -40 42 -25 70 13 24 52 26 74 4z m-296 -10 c24 -17 30 -44 9 -44
-7 0 -18 5 -24 11 -19 19 -33 1 -26 -34 8 -44 21 -56 37 -34 16 21 46 23 46 2
0 -21 -36 -55 -58 -55 -27 0 -49 29 -61 79 -9 39 -7 46 14 67 28 28 34 29 63
8z m550 -60 c28 -20 28 -39 -4 -107 -17 -39 -29 -54 -40 -50 -19 7 -18 16 6
63 23 45 26 70 8 70 -7 0 -24 -25 -37 -55 -24 -57 -28 -60 -48 -47 -9 6 -6 21
13 62 40 86 56 96 102 64z m-822 -94 c20 -37 32 -49 43 -44 53 22 65 -6 16
-36 -21 -13 -40 -19 -45 -14 -19 20 -78 129 -73 136 12 20 34 4 59 -42z m962
12 c18 -24 15 -39 -18 -88 -22 -31 -38 -44 -55 -44 -29 0 -55 24 -55 52 0 25
35 84 58 98 21 11 53 3 70 -18z m-1015 -71 c42 -40 50 -52 39 -62 -10 -11 -21
-4 -57 31 -31 30 -48 41 -55 34 -7 -7 2 -25 31 -58 31 -35 39 -50 30 -59 -8
-8 -22 0 -55 32 -59 58 -80 45 -26 -16 32 -37 38 -49 28 -60 -9 -12 -17 -8
-45 19 -47 45 -63 77 -52 106 5 12 16 25 25 29 9 3 27 17 40 29 12 13 28 24
34 24 6 0 35 -22 63 -49z m607 25 c180 -33 341 -134 447 -284 50 -70 99 -177
109 -240 l6 -41 -88 24 c-156 41 -205 64 -256 117 -50 53 -46 38 -64 216 -4
39 -13 62 -35 86 -40 46 -77 59 -153 54 -80 -5 -183 -54 -301 -143 -52 -39
-97 -65 -121 -70 -21 -4 -82 -27 -135 -51 -90 -41 -149 -55 -149 -35 0 22 86
135 145 189 162 152 378 217 595 178z m509 -32 c27 -35 26 -48 -6 -91 -42 -55
-75 -59 -125 -16 -16 14 -14 20 34 74 28 33 57 59 64 59 7 0 22 -12 33 -26z
m-421 -107 c26 -24 42 -75 42 -132 l-1 -40 -77 -32 c-84 -36 -92 -38 -92 -24
0 4 27 20 60 35 70 32 78 48 18 34 -46 -10 -85 -31 -105 -57 -15 -19 -17 -61
-3 -61 6 0 6 -9 0 -26 -16 -42 -13 -56 9 -44 26 13 31 13 26 -2 -3 -7 -1 -19
4 -27 8 -12 14 -13 37 -2 21 9 29 9 34 0 6 -8 29 0 78 27 l71 39 28 -26 c15
-15 39 -32 52 -39 44 -23 186 -67 287 -90 54 -12 111 -29 126 -36 57 -29 56
-140 -2 -194 -31 -29 -90 -44 -305 -80 -275 -45 -602 -70 -719 -56 -74 10 -91
27 -105 108 -10 61 -8 79 29 264 63 306 58 294 148 359 77 57 196 119 242 128
42 8 94 -3 118 -26z m-899 -13 c-8 -10 1 -21 40 -49 28 -20 51 -41 51 -45 0
-23 -25 -18 -70 15 -42 31 -53 35 -66 24 -9 -8 -18 -9 -24 -3 -7 7 1 25 21 52
25 34 34 40 45 31 11 -9 11 -15 3 -25z m1420 5 c17 -22 20 -34 12 -42 -7 -7
-16 -6 -29 6 -25 23 -35 21 -29 -3 6 -24 -10 -37 -26 -21 -16 16 -41 -7 -26
-25 11 -14 6 -44 -8 -44 -4 0 -18 15 -30 34 l-21 33 61 46 c34 26 65 46 68 47
3 0 16 -14 28 -31z m-1379 -176 c0 -20 -17 -24 -44 -12 -14 7 -29 9 -34 4 -4
-4 -2 -10 4 -12 29 -10 47 -31 41 -47 -6 -15 -14 -13 -69 15 -83 41 -91 48
-77 65 9 11 16 11 39 -1 17 -9 31 -11 35 -5 3 5 -8 16 -25 25 -25 13 -29 19
-20 34 9 17 14 16 80 -18 38 -20 70 -41 70 -48z m1313 16 c-17 -17 -37 -1 -22
17 8 10 15 12 23 4 7 -7 7 -13 -1 -21z m60 -23 c3 -7 0 -19 -6 -25 -23 -23 4
-22 59 3 31 14 58 26 59 26 1 0 5 -9 8 -19 4 -16 -7 -24 -53 -45 -70 -32 -85
-32 -104 -4 -20 28 -20 43 0 62 19 20 30 20 37 2z m-1019 -42 c-7 -25 -31
-135 -53 -245 -35 -172 -39 -206 -31 -250 6 -29 10 -53 10 -54 0 -1 -13 -5
-28 -8 -15 -3 -51 -22 -80 -41 -57 -40 -75 -42 -146 -21 -27 8 -60 12 -75 9
-22 -4 -21 -2 9 14 19 11 61 22 94 26 35 4 76 17 103 32 36 22 44 31 41 52 -2
14 -8 27 -14 29 -6 2 -39 -17 -73 -43 -58 -43 -64 -46 -106 -40 -29 5 -62 2
-96 -8 -58 -17 -126 -21 -147 -7 -10 6 -2 11 25 16 21 3 63 16 93 26 30 11 79
24 109 29 67 12 93 33 89 74 -3 27 -7 31 -31 29 -15 -1 -61 -26 -103 -57 -85
-62 -93 -64 -224 -42 l-75 12 65 11 c36 7 85 15 110 18 78 12 99 35 64 69 -24
24 -55 19 -118 -19 -56 -34 -60 -35 -152 -32 -51 1 -94 3 -94 5 0 11 92 42
125 42 22 0 52 8 66 18 141 95 137 94 210 45 31 -20 47 -24 75 -20 38 6 84 41
84 63 0 24 -40 26 -76 5 -44 -26 -61 -26 -99 -1 -43 28 -76 25 -135 -15 -45
-30 -60 -35 -112 -35 -37 0 -57 4 -53 10 3 6 15 10 26 10 24 0 77 28 143 75
53 38 94 44 136 20 14 -8 35 -14 47 -15 34 0 123 52 123 73 0 25 -34 21 -80
-9 -35 -24 -42 -25 -75 -14 -20 7 -54 10 -75 8 -58 -5 -31 18 30 26 28 4 71
20 97 36 27 16 72 34 102 40 29 5 92 27 140 49 152 68 154 68 135 5z m466 -14
c-63 -50 -114 -82 -100 -65 19 23 102 84 115 85 6 0 -1 -9 -15 -20z m100 -9
c0 -25 -150 -124 -165 -109 -3 3 -1 17 4 30 14 37 161 109 161 79z m598 -43
c17 -17 15 -53 -3 -68 -22 -18 -44 2 -26 24 8 9 8 16 2 21 -6 3 -13 -7 -17
-22 -10 -40 -23 -53 -53 -53 -34 0 -51 17 -51 52 0 24 22 48 44 48 12 0 6 -38
-6 -43 -10 -3 -10 -7 -1 -17 15 -17 33 -4 33 24 0 28 18 46 45 46 12 0 26 -5
33 -12z m51 -457 c44 -31 64 -68 64 -114 0 -120 -140 -196 -247 -134 -67 38
-95 122 -62 186 12 22 26 30 70 40 30 7 66 21 78 32 26 21 59 18 97 -10z
m-1829 -97 c0 -32 115 -236 170 -302 225 -269 591 -398 930 -328 220 46 406
160 561 345 72 85 82 58 11 -29 -151 -186 -368 -312 -605 -350 -106 -17 -310
-8 -411 19 -294 78 -551 307 -665 593 -37 90 -39 108 -11 83 11 -10 20 -24 20
-31z m1505 8 c15 -20 20 -43 20 -87 0 -69 -18 -101 -76 -134 -103 -59 -239 12
-239 125 0 81 10 89 118 106 143 22 154 22 177 -10z m-922 -6 c7 -19 69 -36
129 -36 43 0 49 -3 64 -32 20 -39 14 -110 -13 -146 -39 -52 -70 -67 -138 -67
-77 0 -109 20 -143 88 -32 63 -24 114 27 168 39 41 65 49 74 25z m560 -45 c58
-98 -24 -225 -145 -225 -104 0 -179 115 -136 209 13 29 27 33 113 38 157 8
149 9 168 -22z m-751 -70 l-7 -43 -28 38 -27 39 32 11 c18 6 34 8 35 5 2 -3 0
-26 -5 -50z m-79 -59 c-52 -39 -104 -63 -123 -57 -30 10 -44 42 -31 72 13 29
36 26 36 -5 1 -34 8 -33 61 2 45 31 50 33 62 18 11 -14 10 -19 -5 -30z m67
-42 c30 -30 25 -51 -30 -105 -39 -38 -53 -46 -62 -37 -9 9 -7 17 10 35 17 18
19 26 10 35 -9 9 -17 7 -35 -10 -19 -17 -26 -19 -36 -9 -9 10 -1 22 40 62 57
54 73 59 103 29z m870 -55 c31 -10 24 -21 -27 -45 -137 -65 -270 -89 -393 -71
-44 7 -100 19 -126 28 l-47 16 39 18 c21 10 54 35 72 56 l32 37 33 -32 c90
-87 239 -81 314 13 l27 34 28 -24 c15 -13 37 -26 48 -30z m-790 -15 c0 -6 -7
-26 -15 -46 -15 -37 -9 -38 32 -1 20 18 43 17 43 -2 0 -11 -115 -101 -129
-101 -5 0 -12 4 -15 9 -9 14 55 151 70 151 8 0 14 -5 14 -10z m870 -66 c0 -8
-4 -14 -10 -14 -17 0 -12 -18 19 -67 16 -26 27 -51 25 -55 -12 -19 -31 -5 -57
42 -21 37 -33 49 -49 47 -37 -4 -30 21 13 47 44 25 59 26 59 0z m-740 -14 c39
-21 41 -43 10 -108 -16 -34 -34 -62 -39 -62 -18 0 -21 18 -9 45 10 22 9 28 -3
35 -10 7 -18 2 -28 -18 -18 -35 -16 -33 -34 -26 -14 5 -12 14 15 67 39 79 50
87 88 67z m620 -50 c26 -26 25 -47 -4 -73 -20 -18 -22 -25 -13 -45 8 -18 8
-25 -3 -32 -8 -5 -18 -6 -22 -2 -9 9 -59 144 -55 148 6 6 52 23 65 23 6 1 21
-8 32 -19z m-480 -10 c11 -11 20 -24 20 -29 0 -19 -23 -24 -35 -8 -7 10 -18
17 -25 17 -8 0 -3 -12 13 -28 33 -35 34 -67 3 -87 -36 -24 -76 -5 -76 34 0 22
4 29 14 25 8 -3 17 -12 20 -20 3 -8 10 -14 16 -14 17 0 11 26 -10 45 -34 31
-21 85 22 85 10 0 27 -9 38 -20z m369 -62 c7 -35 14 -70 17 -79 3 -11 -3 -18
-16 -22 -15 -4 -21 0 -25 16 -30 146 -30 147 -6 147 15 0 21 -12 30 -62z
m-223 27 c8 -13 13 -29 9 -35 -10 -16 -35 -12 -35 6 0 28 -35 11 -38 -19 -5
-40 5 -64 20 -49 16 16 48 15 48 -1 0 -36 -75 -52 -100 -22 -18 21 -4 122 18
135 30 17 61 11 78 -15z m128 9 c19 -18 21 -55 4 -72 -10 -10 -8 -19 5 -42 18
-29 18 -30 -2 -30 -11 0 -27 10 -35 22 l-16 22 0 -27 c0 -20 -5 -27 -19 -27
-15 0 -19 11 -24 76 -4 42 -4 80 -1 85 9 15 71 10 88 -7z"/>
<path d="M1870 1718 c-20 -33 -18 -48 4 -48 18 0 49 48 42 66 -9 23 -25 16
-46 -18z"/>
<path d="M1981 1626 c-23 -23 -29 -36 -21 -41 17 -10 78 51 64 65 -7 7 -21 -1
-43 -24z"/>
<path d="M1313 1150 c-40 -16 -51 -58 -28 -112 5 -13 2 -18 -10 -18 -9 0 -19
9 -22 19 -7 26 -23 31 -68 21 -52 -12 -72 -50 -42 -82 6 -8 17 -23 23 -33 9
-16 22 -20 70 -20 64 0 61 4 47 -67 -4 -20 1 -33 20 -52 34 -34 76 -34 117 0
38 32 118 38 148 11 24 -22 31 -21 59 5 19 18 36 22 103 23 97 3 112 13 109
72 -2 24 2 48 9 55 15 15 16 55 1 64 -7 4 -9 21 -5 42 9 58 -35 85 -71 42 -14
-16 -25 -18 -62 -13 -25 3 -54 14 -64 25 -10 10 -22 16 -27 13 -5 -3 -34 -6
-65 -6 -48 -1 -58 -5 -72 -25 -20 -31 -31 -30 -43 1 -15 39 -75 56 -127 35z
m85 -26 c25 -17 30 -62 7 -70 -13 -5 -13 -9 0 -34 17 -33 42 -44 80 -34 23 6
26 4 23 -12 -7 -40 -88 -29 -114 16 -17 28 -18 28 -31 10 -23 -32 -28 -24 -28
40 0 42 4 60 12 60 7 0 13 -7 13 -15 0 -16 25 -21 34 -7 10 17 -12 33 -40 30
-25 -3 -29 -7 -27 -30 2 -31 -21 -39 -31 -12 -9 25 1 50 27 62 31 15 49 14 75
-4z m187 -59 c4 -30 11 -55 14 -55 16 0 19 13 11 36 -6 15 -6 26 1 30 15 9 25
-5 32 -43 l7 -33 -44 0 -44 0 -4 53 c-5 55 -2 67 12 67 5 0 12 -25 15 -55z
m50 46 c7 -12 -12 -24 -25 -16 -11 7 -4 25 10 25 5 0 11 -4 15 -9z m183 -23
c0 -21 -8 -39 -22 -50 -21 -17 -21 -17 0 -12 12 3 26 -1 34 -11 12 -15 12 -19
-5 -32 -11 -7 -31 -13 -45 -11 -23 3 -25 7 -26 55 -1 42 2 53 16 58 10 3 21
12 24 20 10 27 25 16 24 -17z m-286 -20 c3 -24 6 -50 9 -58 2 -9 -3 -15 -14
-15 -16 0 -19 9 -20 58 -2 68 19 80 25 15z m201 -11 c10 -30 4 -57 -13 -57 -5
0 -10 14 -10 30 0 17 -5 30 -11 30 -7 0 -9 -11 -5 -30 4 -24 2 -30 -12 -30
-15 0 -18 8 -16 43 0 23 2 42 3 42 0 1 13 1 28 0 20 0 29 -7 36 -28z m-248
-27 c0 -28 -4 -36 -21 -38 -28 -4 -48 22 -40 54 5 20 12 25 34 22 24 -3 27 -7
27 -38z m-250 -10 c3 -11 10 -20 15 -20 11 0 20 -39 9 -46 -5 -3 -10 3 -10 13
-1 17 -2 17 -6 1 -8 -31 -23 -19 -25 20 l-1 37 -4 -37 c-4 -38 -23 -54 -23
-19 0 11 -9 21 -21 24 -41 11 -14 34 53 46 4 0 10 -8 13 -19z m81 -42 c1 -10
-2 -21 -8 -24 -14 -9 -42 21 -33 36 10 16 38 8 41 -12z m82 -31 c3 -15 -1 -17
-22 -11 -37 9 -32 -10 7 -27 25 -11 33 -21 35 -46 6 -62 -84 -85 -110 -28 -13
29 3 55 33 55 24 0 25 -16 2 -29 -14 -7 -15 -13 -7 -21 18 -18 49 -7 52 18 3
18 -4 26 -32 37 -37 16 -47 40 -24 63 18 18 62 11 66 -11z m342 -17 c8 -15 8
-21 -2 -24 -39 -13 -42 -14 -20 -15 26 -1 29 -16 6 -25 -10 -4 -25 1 -36 11
-19 17 -20 17 -29 0 -6 -9 -15 -17 -21 -17 -6 0 -17 -8 -24 -17 -17 -24 -21
-17 -25 42 -4 49 -3 50 26 53 19 3 33 -2 41 -13 11 -15 13 -15 24 4 14 27 46
27 60 1z m74 -12 c3 -17 2 -36 -3 -41 -12 -12 -54 -5 -59 12 -3 10 2 11 19 6
l24 -6 -24 19 c-27 22 -21 42 13 42 18 0 25 -7 30 -32z m-324 1 c0 -5 -9 -9
-20 -9 -19 0 -27 -19 -14 -32 11 -12 44 5 44 22 0 10 7 23 16 31 23 19 49 -1
49 -37 0 -26 -3 -29 -35 -29 -19 0 -41 -4 -48 -8 -7 -5 -21 -5 -32 -2 -25 8
-28 60 -3 73 18 11 43 5 43 -9z"/>
<path d="M1770 1060 c0 -5 4 -10 9 -10 6 0 13 5 16 10 3 6 -1 10 -9 10 -9 0
-16 -4 -16 -10z"/>
<path d="M1775 1000 c3 -5 13 -10 21 -10 8 0 14 5 14 10 0 6 -9 10 -21 10 -11
0 -17 -4 -14 -10z"/>
<path d="M1442 1033 c5 -25 28 -28 28 -4 0 12 -6 21 -16 21 -9 0 -14 -7 -12
-17z"/>
<path d="M1170 1010 c0 -5 5 -10 10 -10 6 0 10 5 10 10 0 6 -4 10 -10 10 -5 0
-10 -4 -10 -10z"/>
<path d="M1700 919 c0 -5 5 -7 10 -4 6 3 10 8 10 11 0 2 -4 4 -10 4 -5 0 -10
-5 -10 -11z"/>
<path d="M1613 905 c-3 -9 -3 -18 0 -21 9 -9 27 6 27 22 0 19 -19 18 -27 -1z"/>
<path d="M1526 913 c-12 -12 -6 -33 9 -33 8 0 15 6 15 14 0 17 -14 28 -24 19z"/>
<path d="M836 481 c-3 -5 1 -14 8 -20 16 -13 32 2 21 19 -8 12 -22 13 -29 1z"/>
<path d="M1064 319 c-8 -14 18 -31 30 -19 9 9 0 30 -14 30 -5 0 -12 -5 -16
-11z"/>
<path d="M1670 275 c0 -8 7 -15 15 -15 8 0 15 7 15 15 0 8 -7 15 -15 15 -8 0
-15 -7 -15 -15z"/>
<path d="M1460 235 c0 -10 7 -15 18 -13 21 4 19 22 -2 26 -10 2 -16 -3 -16
-13z"/>
</g>
</svg>
